<mxfile host="app.diagrams.net" agent="Mozilla/5.0 (X11; Linux x86_64; rv:133.0) Gecko/20100101 Firefox/133.0" version="24.8.4">
  <diagram name="Page-1" id="dUJxD5Jq4gBw1YblnPDF">
    <mxGraphModel dx="989" dy="615" grid="1" gridSize="10" guides="1" tooltips="1" connect="1" arrows="1" fold="1" page="1" pageScale="1" pageWidth="850" pageHeight="1100" math="0" shadow="0">
      <root>
        <mxCell id="0" />
        <mxCell id="1" parent="0" />
        <mxCell id="bRfGZEoEgHbMcgY7yq1g-24" value="&lt;font style=&quot;font-size: 25px;&quot;&gt;Hardware&lt;/font&gt;" style="rounded=1;whiteSpace=wrap;html=1;fontFamily=Courier New;fillColor=#99c1f1;strokeColor=#10739e;fontSize=25;" parent="1" vertex="1">
          <mxGeometry x="190" y="620" width="390" height="70" as="geometry" />
        </mxCell>
        <mxCell id="bRfGZEoEgHbMcgY7yq1g-25" value="" style="rounded=1;whiteSpace=wrap;html=1;fontFamily=Courier New;fillColor=#f66151;strokeColor=#ae4132;arcSize=4;" parent="1" vertex="1">
          <mxGeometry x="190" y="280" width="390" height="330" as="geometry" />
        </mxCell>
        <mxCell id="bRfGZEoEgHbMcgY7yq1g-26" value="" style="rounded=1;whiteSpace=wrap;html=1;fontFamily=Courier New;fillColor=#f0a30a;fontColor=#000000;strokeColor=#BD7000;" parent="1" vertex="1">
          <mxGeometry x="210" y="500" width="355" height="100" as="geometry" />
        </mxCell>
        <mxCell id="bRfGZEoEgHbMcgY7yq1g-28" value="eBPF Sandbox" style="text;html=1;align=center;verticalAlign=middle;whiteSpace=wrap;rounded=0;fontFamily=Courier New;fontSize=22;" parent="1" vertex="1">
          <mxGeometry x="236" y="535" width="60" height="30" as="geometry" />
        </mxCell>
        <mxCell id="bRfGZEoEgHbMcgY7yq1g-29" value="" style="rounded=1;whiteSpace=wrap;html=1;fontFamily=Courier New;arcSize=7;fillColor=#f0a30a;fontColor=#000000;strokeColor=#BD7000;" parent="1" vertex="1">
          <mxGeometry x="210" y="330" width="355" height="160" as="geometry" />
        </mxCell>
        <mxCell id="bRfGZEoEgHbMcgY7yq1g-38" style="edgeStyle=orthogonalEdgeStyle;rounded=0;orthogonalLoop=1;jettySize=auto;html=1;strokeWidth=2;endArrow=oval;endFill=1;startArrow=block;startFill=1;entryX=0.996;entryY=0.502;entryDx=0;entryDy=0;entryPerimeter=0;" parent="1" source="bRfGZEoEgHbMcgY7yq1g-32" target="bRfGZEoEgHbMcgY7yq1g-26" edge="1">
          <mxGeometry relative="1" as="geometry">
            <Array as="points">
              <mxPoint x="600" y="435" />
              <mxPoint x="600" y="550" />
            </Array>
            <mxPoint x="570" y="550" as="targetPoint" />
          </mxGeometry>
        </mxCell>
        <mxCell id="bRfGZEoEgHbMcgY7yq1g-39" value="&lt;div&gt;Send packets&lt;/div&gt;" style="edgeLabel;html=1;align=left;verticalAlign=middle;resizable=0;points=[];" parent="bRfGZEoEgHbMcgY7yq1g-38" vertex="1" connectable="0">
          <mxGeometry x="0.3907" y="1" relative="1" as="geometry">
            <mxPoint x="-41" y="-36" as="offset" />
          </mxGeometry>
        </mxCell>
        <mxCell id="bRfGZEoEgHbMcgY7yq1g-30" value="Kernel-based type 2 hypervisor" style="text;html=1;align=center;verticalAlign=middle;whiteSpace=wrap;rounded=0;fontSize=17;fontFamily=Courier New;" parent="1" vertex="1">
          <mxGeometry x="220" y="340" width="330" height="30" as="geometry" />
        </mxCell>
        <mxCell id="bRfGZEoEgHbMcgY7yq1g-32" value="Guest VM executor" style="rounded=1;whiteSpace=wrap;html=1;fontFamily=Courier New;fontSize=20;fillColor=#e3c800;fontColor=#000000;strokeColor=#B09500;" parent="1" vertex="1">
          <mxGeometry x="220" y="390" width="333" height="90" as="geometry" />
        </mxCell>
        <mxCell id="bRfGZEoEgHbMcgY7yq1g-33" value="&lt;font color=&quot;#ffffff&quot;&gt;Linux Kernel&lt;/font&gt;" style="text;html=1;align=center;verticalAlign=middle;whiteSpace=wrap;rounded=0;fontSize=21;fontFamily=Courier New;" parent="1" vertex="1">
          <mxGeometry x="257.5" y="290" width="260" height="30" as="geometry" />
        </mxCell>
        <mxCell id="bRfGZEoEgHbMcgY7yq1g-34" value="" style="rounded=1;whiteSpace=wrap;html=1;fontFamily=Courier New;fillColor=#008a00;strokeColor=#005700;arcSize=7;fontColor=#ffffff;" parent="1" vertex="1">
          <mxGeometry x="190" y="130" width="390" height="140" as="geometry" />
        </mxCell>
        <mxCell id="bRfGZEoEgHbMcgY7yq1g-40" style="edgeStyle=orthogonalEdgeStyle;rounded=0;orthogonalLoop=1;jettySize=auto;html=1;startArrow=oval;startFill=1;endArrow=block;endFill=1;strokeWidth=2;" parent="1" source="bRfGZEoEgHbMcgY7yq1g-36" edge="1">
          <mxGeometry relative="1" as="geometry">
            <Array as="points">
              <mxPoint x="640" y="220" />
              <mxPoint x="640" y="570" />
              <mxPoint x="563" y="570" />
            </Array>
            <mxPoint x="560" y="570" as="targetPoint" />
          </mxGeometry>
        </mxCell>
        <mxCell id="bRfGZEoEgHbMcgY7yq1g-42" value="Commands as&lt;br&gt;eBPF Bytecode" style="edgeLabel;html=1;align=center;verticalAlign=middle;resizable=0;points=[];" parent="bRfGZEoEgHbMcgY7yq1g-40" vertex="1" connectable="0">
          <mxGeometry x="-0.2191" y="1" relative="1" as="geometry">
            <mxPoint as="offset" />
          </mxGeometry>
        </mxCell>
        <mxCell id="bRfGZEoEgHbMcgY7yq1g-36" value="eBPF Agents" style="rounded=1;whiteSpace=wrap;html=1;fontFamily=Courier New;fillColor=#60a917;strokeColor=#2D7600;arcSize=9;fontColor=#ffffff;fontSize=18;" parent="1" vertex="1">
          <mxGeometry x="200" y="180" width="368" height="80" as="geometry" />
        </mxCell>
        <mxCell id="bRfGZEoEgHbMcgY7yq1g-37" value="Userland" style="text;html=1;align=center;verticalAlign=middle;whiteSpace=wrap;rounded=0;fontColor=#ffffff;fontSize=22;fontFamily=Courier New;" parent="1" vertex="1">
          <mxGeometry x="210" y="141" width="350" height="30" as="geometry" />
        </mxCell>
        <mxCell id="bRfGZEoEgHbMcgY7yq1g-27" value="TC" style="rounded=1;whiteSpace=wrap;html=1;fontFamily=Courier New;fontSize=22;fillColor=#e3c800;fontColor=#000000;strokeColor=#B09500;" parent="1" vertex="1">
          <mxGeometry x="440" y="510" width="110" height="80" as="geometry" />
        </mxCell>
        <mxCell id="4K8sOnvO-fVXav3zB57s-1" value="&lt;font style=&quot;font-size: 22px;&quot;&gt;XDP&lt;/font&gt;" style="rounded=1;whiteSpace=wrap;html=1;fontFamily=Courier New;fontSize=22;fillColor=#e3c800;fontColor=#000000;strokeColor=#B09500;" vertex="1" parent="1">
          <mxGeometry x="320" y="510" width="110" height="80" as="geometry" />
        </mxCell>
      </root>
    </mxGraphModel>
  </diagram>
</mxfile>
